<svg width="104" height="104" viewBox="0 0 104 104" fill="none" xmlns="http://www.w3.org/2000/svg">
<path fill-rule="evenodd" clip-rule="evenodd" d="M48.5457 62.0917C47.8899 62.0917 47.3571 62.6236 47.3571 63.2783C47.3571 63.9331 47.8899 64.465 48.5457 64.465C49.2015 64.465 49.7343 63.9331 49.7343 63.2783C49.7343 62.6236 49.2015 62.0917 48.5457 62.0917" fill="#62E0D9"/>
<rect x="68.3834" y="37.9922" width="25.696" height="52.9455" rx="1.64118" stroke="#62E0D9" stroke-width="1.64118"/>
<path fill-rule="evenodd" clip-rule="evenodd" d="M67.5629 67.6525H14.5157V59.6472H67.5629V57.2739H14.5157V16.9984H85.83V37.1717H88.2071V15.8117C88.2071 15.1554 87.6747 14.625 87.0186 14.625H13.3272C12.6699 14.625 12.1386 15.1554 12.1386 15.8117V68.8391C12.1386 69.4953 12.6699 70.0257 13.3272 70.0257H35.267V77.2893H31.3138C30.6565 77.2893 30.1252 77.8221 30.1252 78.476V84.3879C30.1252 85.0418 30.6565 85.5746 31.3138 85.5746H67.5629V83.2014H32.5024V79.6627H36.4556C37.1128 79.6627 37.6441 79.1323 37.6441 78.4761V70.0258H62.7004V78.4761C62.7004 79.1323 63.2329 79.6627 63.889 79.6627H67.5629V77.2893H65.0775V70.0257H67.5629V67.6525Z" fill="#62E0D9"/>
<rect x="67.8595" y="43.4016" width="26.7438" height="0.593333" fill="white" stroke="#62E0D9" stroke-width="0.593333"/>
<rect x="67.8595" y="81.375" width="26.7438" height="0.593333" fill="white" stroke="#62E0D9" stroke-width="0.593333"/>
<ellipse cx="80.6371" cy="85.825" rx="1.18857" ry="1.18667" stroke="#62E0D9" stroke-width="1.00971"/>
<path fill-rule="evenodd" clip-rule="evenodd" d="M57.559 30.0518C57.46 30.0518 57.46 30.0518 57.3609 30.0518L52.1114 32.1284L46.1686 30.0518L40.6219 31.9306C40.4238 32.0295 40.2257 32.1284 40.2257 32.4251V47.3573C40.2257 47.654 40.4238 47.8518 40.7209 47.8518C40.82 47.8518 40.82 47.8518 40.919 47.8518L46.1686 45.7751L52.1114 47.8518L57.6581 45.9729C57.8562 45.874 58.0543 45.6762 58.0543 45.4784V30.5462C58.0543 30.2495 57.8562 30.0518 57.559 30.0518V30.0518ZM52.1114 44.8851L46.1686 42.8826V31.5351L52.1114 33.5376V44.8851V44.8851Z" fill="#62E0D9"/>
<path fill-rule="evenodd" clip-rule="evenodd" d="M42.6029 30.0518C41.2784 30.0518 40.2257 30.9714 40.2257 32.1284C40.2257 33.6711 42.6029 35.9851 42.6029 35.9851C42.6029 35.9851 44.98 33.6711 44.98 32.1284C44.98 30.9714 43.9273 30.0518 42.6029 30.0518V30.0518ZM42.6029 33.0184C42.0909 33.0184 41.6886 32.6558 41.6886 32.1944C41.6886 31.7329 42.0909 31.3703 42.6029 31.3703C43.1149 31.3703 43.5171 31.7329 43.5171 32.1944C43.5171 32.6558 43.1149 33.0184 42.6029 33.0184V33.0184Z" fill="white"/>
</svg>
